<?xml version="1.0" encoding="UTF-8"?>
<!-- Generator: Adobe Illustrator 16.0.3, SVG Export Plug-In . SVG Version: 6.00 Build 0)  -->
<svg xmlns="http://www.w3.org/2000/svg" xmlns:xlink="http://www.w3.org/1999/xlink" version="1.1" x="0px" y="0px" width="714px" height="630.5px" viewBox="0 0 714 630.5" xml:space="preserve">
<g id="Vorlage" display="none">
	
		<image display="inline" overflow="visible" width="200" height="196" transform="matrix(3.6246 0 0 3.6246 -1.9219 -0.5156)">
	</image>
</g>
<g id="Layer_6">
	<path fill="none" stroke="#000000" stroke-width="20" stroke-miterlimit="10" d="M632.16,420.942c0,0,0-103.328,0-117.137   s14.197-25.237,35.26-25.237c21.061,0,36.442,15.401,36.442,31.747c0,16.346-16.802,28.488-16.802,28.488h-39.281"></path>
	<path fill="none" stroke="#000000" stroke-width="20" stroke-miterlimit="10" d="M676.017,338.803"></path>
	<path fill="none" stroke="#000000" stroke-width="20" stroke-miterlimit="10" d="M672.23,338.803c0,0,4.846,0,11.637,0   c6.786,0,16.916,11.31,16.916,27.023c0,15.713,0,55.116,0,55.116"></path>
	
		<line fill="none" stroke="#000000" stroke-width="19" stroke-miterlimit="10" x1="533.234" y1="514.197" x2="453.507" y2="514.197"></line>
	<path fill="none" stroke="#000000" stroke-width="19" stroke-miterlimit="10" d="M533.234,448.321   c-21.059,0-79.728,6.923-79.728,65.876c0,58.96,57.208,65.874,79.728,65.874"></path>
	<path fill="none" stroke="#000000" stroke-width="20" stroke-miterlimit="10" d="M262.246,446.066   c-14.554,0-77.89,7.211-77.89,67.176s55.312,66.829,77.89,66.829"></path>
	
		<line fill="none" stroke="#000000" stroke-width="20" stroke-miterlimit="10" x1="473.955" y1="343.852" x2="412.753" y2="343.852"></line>
	<path fill="none" stroke="#000000" stroke-width="20" stroke-miterlimit="10" d="M475.5,333.859c0,0.071,0,10.134,0,10.205   c-0.118,34.837-29.206,65.328-65,65.328c-35.866,0-65-29.995-65-65.542c0-35.546,29.545-65.541,65-65.541   c35.459,0,49.391,24.901,49.391,24.901"></path>
	<path fill="none" stroke="#000000" stroke-width="20" stroke-miterlimit="10" d="M569.25,381"></path>
	<line fill="none" stroke="#000000" stroke-width="19" stroke-miterlimit="10" x1="569.25" y1="438" x2="569.25" y2="590"></line>
	<path fill="none" stroke="#000000" stroke-width="19" stroke-miterlimit="10" d="M574,512.111c0,0,5.75,0,26.25,0   S656,459.75,656,438"></path>
	<path fill="none" stroke="#000000" stroke-width="19" stroke-miterlimit="10" d="M651,590c0,0,0-40.5,0-51.75   s-14.25-26.139-58-26.139"></path>
	<path fill="none" stroke="#000000" stroke-width="19" stroke-miterlimit="10" d="M339.5,448.321   c107.5,0,100.464-14.099,42.25,63.79s-56.084,67.96,51.25,67.96"></path>
	
		<line fill="none" stroke="#000000" stroke-width="19" stroke-miterlimit="10" x1="594.234" y1="344.444" x2="514.507" y2="344.444"></line>
	<path fill="none" stroke="#000000" stroke-width="19" stroke-miterlimit="10" d="M594.234,278.568   c-21.059,0-79.728,6.922-79.728,65.876c0,58.96,57.208,65.874,79.728,65.874"></path>
	
		<line fill="none" stroke="#000000" stroke-width="19" stroke-miterlimit="10" x1="259.234" y1="344.444" x2="179.507" y2="344.444"></line>
	<path fill="none" stroke="#000000" stroke-width="19" stroke-miterlimit="10" d="M259.234,278.568   c-21.059,0-79.728,6.922-79.728,65.876c0,58.96,57.208,65.874,79.728,65.874"></path>
	
		<line fill="none" stroke="#000000" stroke-width="20" stroke-miterlimit="10" x1="140.955" y1="343.852" x2="79.753" y2="343.852"></line>
	<path fill="none" stroke="#000000" stroke-width="20" stroke-miterlimit="10" d="M142.5,333.859c0,0.071,0,10.134,0,10.205   c-0.118,34.837-29.206,65.328-65,65.328c-35.866,0-65-29.995-65-65.542c0-35.546,29.545-65.541,65-65.541   c35.459,0,49.391,24.901,49.391,24.901"></path>
</g>
<g id="Balken">
	<path fill="#E2001A" d="M282.39,213.032V630.5h42.852V213.032H282.39z M312.604,590.018h-17.575V440.198h17.575V590.018z    M312.604,419.002h-17.575V269.183h17.575V419.002z"></path>
	<rect x="295.028" y="438" fill="#FFFFFF" width="17.575" height="152.018"></rect>
	<rect x="295.028" y="267.667" fill="#FFFFFF" width="17.575" height="152.351"></rect>
</g>
<g id="Flamme">
	<path fill="#FFDD00" stroke="#CEC696" stroke-width="2" stroke-miterlimit="10" d="M269.667,85.667   c0,0-21.333,11.665-19.667-34.668c-7.667,0.333-22.333,32.999-3,68c0,0-27.667-5.333-28-43.333   c-12.667,2-26.667,24.333-2.333,74.333c0,0-5.666,23.328-20.333-7.668c-36,46.671,57.667,51.339,45,103.336c0,0,53,2,15-51   c7.667,1.333,10,0,10,0s-8.667-24,0-40.667C282.667,164.667,281,179.667,281,179.667c22-0.333,3.667-50.667,3.667-50.667   s24.333-7.333,30,53c24.333,4.333,20-15,21.333-27.667c0,0,18.333,12.667-4.333,44.667c16.333,6.667,16.667-22,24-19   c0,0,12.333,27.667-20.667,56.333c72,5,47-92,75.5-114c0,0-11.834-6-33.5,19c-4,0.333,1.001-32.667,13.667-39.333   c0,0-28.333-1.666-40.667,12.667c-4.071,1.679-3.333-51.334,8.333-57.667l0,0c0,0-19.667-6.001-43.333,22.333   c-23.667-23.999,29.632-33.665-11.184-75.666C301,34.667,256.333,44.001,269.667,85.667"></path>
</g>
</svg>
